<svg width="326" height="287" viewBox="0 0 326 287" fill="none" xmlns="http://www.w3.org/2000/svg">
<path d="M85.0404 80.1344L123.2 120.768L37.3414 102.483C2.04081 93.6142 7.29541 118.606 7.25437 151.921C7.70379 189.078 14.449 198.285 37.3414 195.264L123.2 176.979L64.4932 231.835C48.4974 249.064 59.288 254.279 85.0404 266.374C110.793 278.468 150.025 293.845 156.956 255.538L163.56 180.365L196.583 259.601C213.394 293.205 233.277 281.952 277.304 237.253C292.526 219.438 294.05 210.833 277.304 199.327L217.13 160.048L302.254 134.313C324.427 118.102 322.482 105.806 302.254 80.1344C272.019 49.4349 258.226 49.7235 235.476 60.4946L179.705 111.964L168.697 31.3736C164.907 -1.97578 151.414 -0.261978 111.458 31.3736C78.7269 57.0924 70.8292 68.3966 85.0404 80.1344Z" stroke="#FFC188" stroke-width="14" stroke-linecap="round"/>
</svg>
