<svg width="881" height="868" viewBox="0 0 881 868" fill="none" xmlns="http://www.w3.org/2000/svg">
<path d="M356.363 566.361C356.363 566.361 447.624 509.029 484.949 523.266C521.087 537.05 528.629 573.957 504.211 616.99C482.381 655.461 351.108 605.102 322.228 641.904C297.042 673.999 339.111 768.031 367.606 778.369C389.873 786.448 394.896 707.161 424.139 692.895C467.971 671.511 432.159 761.039 475.606 753.151C518.971 745.278 578.591 581.416 570.829 619.836C563.714 655.052 576.469 756.395 576.469 756.395" stroke="#B3CAE1" stroke-width="15" stroke-linecap="round"/>
<path d="M491.16 134.03L553.826 204.609L412.828 172.848C354.856 157.444 363.485 200.853 363.418 258.719C364.156 323.258 375.233 339.251 412.828 334.003L553.826 302.243L457.417 397.524C431.148 427.45 448.869 436.509 491.16 457.516C533.451 478.523 597.879 505.232 609.262 438.695L620.108 308.124L674.338 445.753C701.947 504.121 734.599 484.575 806.901 406.934C831.899 375.992 834.402 361.045 806.901 341.061L708.081 272.835L847.875 228.135C884.287 199.976 881.093 178.62 847.875 134.03C798.222 80.7068 775.57 81.208 738.209 99.9168L646.62 189.317L628.544 49.3354C622.32 -8.59038 600.16 -5.6136 534.544 49.3354C480.792 94.0074 467.822 113.642 491.16 134.03Z" stroke="#74866F" stroke-width="14" stroke-linecap="round"/>
<path d="M103.153 395.347C110.511 389.798 135.038 289.487 150.735 292.048C166.432 294.609 198.807 384.249 204.694 389.798C210.58 395.347 322.422 352.235 326.837 365.894C331.252 379.553 244.427 438.032 241.484 445.289C238.541 452.545 289.066 542.611 277.784 549.868C266.501 557.124 183.601 480.717 175.752 481.571C167.904 482.425 108.058 549.868 90.399 556.697C72.7398 563.527 90.399 452.545 90.399 452.545C90.399 452.545 7.98905 418.397 7.00798 406.445C6.02691 394.493 95.7949 400.896 103.153 395.347Z" stroke="#FFC188" stroke-width="14" stroke-linecap="round"/>
</svg>
