<svg width="341" height="325" viewBox="0 0 341 325" fill="none" xmlns="http://www.w3.org/2000/svg">
<path d="M105.008 128.056C112.508 121.556 137.508 4.05647 153.508 7.05647C169.508 10.0565 202.508 115.056 208.508 121.556C214.508 128.056 328.508 77.5565 333.008 93.5565C337.508 109.556 249.008 178.056 246.008 186.556C243.008 195.056 294.508 300.556 283.008 309.057C271.508 317.557 187.008 228.056 179.008 229.056C171.008 230.056 110.008 309.057 92.0081 317.057C74.0081 325.057 92.0081 195.056 92.0081 195.056C92.0081 195.056 8.00814 155.056 7.00814 141.056C6.00814 127.056 97.508 134.556 105.008 128.056Z" stroke="#74866F" stroke-width="20" stroke-linecap="round"/>
</svg>
